<mxfile host="app.diagrams.net" agent="Mozilla/5.0 (X11; Ubuntu; Linux x86_64; rv:133.0) Gecko/20100101 Firefox/133.0" version="25.0.1">
  <diagram name="PÃ gina-1" id="sEODth0ExldS0avk9kin">
    <mxGraphModel grid="1" page="1" gridSize="10" guides="1" tooltips="1" connect="1" arrows="1" fold="1" pageScale="1" pageWidth="827" pageHeight="1169" math="0" shadow="0">
      <root>
        <mxCell id="0" />
        <mxCell id="1" parent="0" />
        <mxCell id="60ZunG6yb70epRFw_22t-9" style="edgeStyle=orthogonalEdgeStyle;rounded=0;orthogonalLoop=1;jettySize=auto;html=1;" edge="1" parent="1" source="60ZunG6yb70epRFw_22t-1" target="60ZunG6yb70epRFw_22t-3">
          <mxGeometry relative="1" as="geometry" />
        </mxCell>
        <mxCell id="60ZunG6yb70epRFw_22t-1" value="alertesFarmaceutiques" style="whiteSpace=wrap;html=1;aspect=fixed;" vertex="1" parent="1">
          <mxGeometry x="270" y="60" width="130" height="130" as="geometry" />
        </mxCell>
        <mxCell id="60ZunG6yb70epRFw_22t-3" value="alerta" style="rhombus;whiteSpace=wrap;html=1;" vertex="1" parent="1">
          <mxGeometry x="295" y="230" width="80" height="80" as="geometry" />
        </mxCell>
        <mxCell id="60ZunG6yb70epRFw_22t-21" style="rounded=0;orthogonalLoop=1;jettySize=auto;html=1;entryX=0;entryY=0.5;entryDx=0;entryDy=0;elbow=vertical;" edge="1" parent="1" source="60ZunG6yb70epRFw_22t-5" target="60ZunG6yb70epRFw_22t-3">
          <mxGeometry relative="1" as="geometry" />
        </mxCell>
        <mxCell id="60ZunG6yb70epRFw_22t-5" value="referencia" style="ellipse;whiteSpace=wrap;html=1;" vertex="1" parent="1">
          <mxGeometry x="45" y="175" width="70" height="50" as="geometry" />
        </mxCell>
        <mxCell id="60ZunG6yb70epRFw_22t-6" value="dataNotificacio" style="ellipse;whiteSpace=wrap;html=1;" vertex="1" parent="1">
          <mxGeometry x="45" y="250" width="90" height="60" as="geometry" />
        </mxCell>
        <mxCell id="60ZunG6yb70epRFw_22t-23" style="rounded=0;orthogonalLoop=1;jettySize=auto;html=1;entryX=0;entryY=0.5;entryDx=0;entryDy=0;" edge="1" parent="1" source="60ZunG6yb70epRFw_22t-8" target="60ZunG6yb70epRFw_22t-3">
          <mxGeometry relative="1" as="geometry" />
        </mxCell>
        <mxCell id="60ZunG6yb70epRFw_22t-8" value="origen" style="ellipse;whiteSpace=wrap;html=1;" vertex="1" parent="1">
          <mxGeometry x="90" y="330" width="70" height="50" as="geometry" />
        </mxCell>
        <mxCell id="60ZunG6yb70epRFw_22t-27" style="rounded=0;orthogonalLoop=1;jettySize=auto;html=1;" edge="1" parent="1" source="60ZunG6yb70epRFw_22t-11" target="60ZunG6yb70epRFw_22t-3">
          <mxGeometry relative="1" as="geometry" />
        </mxCell>
        <mxCell id="60ZunG6yb70epRFw_22t-11" value="suborigen" style="ellipse;whiteSpace=wrap;html=1;" vertex="1" parent="1">
          <mxGeometry x="180" y="360" width="70" height="50" as="geometry" />
        </mxCell>
        <mxCell id="60ZunG6yb70epRFw_22t-25" style="rounded=0;orthogonalLoop=1;jettySize=auto;html=1;entryX=0.5;entryY=1;entryDx=0;entryDy=0;" edge="1" parent="1" source="60ZunG6yb70epRFw_22t-12" target="60ZunG6yb70epRFw_22t-3">
          <mxGeometry relative="1" as="geometry" />
        </mxCell>
        <mxCell id="60ZunG6yb70epRFw_22t-12" value="grupAlerta" style="ellipse;whiteSpace=wrap;html=1;" vertex="1" parent="1">
          <mxGeometry x="270" y="380" width="80" height="40" as="geometry" />
        </mxCell>
        <mxCell id="60ZunG6yb70epRFw_22t-28" style="rounded=0;orthogonalLoop=1;jettySize=auto;html=1;entryX=0.5;entryY=1;entryDx=0;entryDy=0;" edge="1" parent="1" source="60ZunG6yb70epRFw_22t-13" target="60ZunG6yb70epRFw_22t-3">
          <mxGeometry relative="1" as="geometry" />
        </mxCell>
        <mxCell id="60ZunG6yb70epRFw_22t-13" value="tipusAlerta" style="ellipse;whiteSpace=wrap;html=1;" vertex="1" parent="1">
          <mxGeometry x="369" y="370" width="81" height="50" as="geometry" />
        </mxCell>
        <mxCell id="60ZunG6yb70epRFw_22t-29" style="rounded=0;orthogonalLoop=1;jettySize=auto;html=1;entryX=1;entryY=0.5;entryDx=0;entryDy=0;" edge="1" parent="1" source="60ZunG6yb70epRFw_22t-15" target="60ZunG6yb70epRFw_22t-3">
          <mxGeometry relative="1" as="geometry" />
        </mxCell>
        <mxCell id="60ZunG6yb70epRFw_22t-15" value="classe" style="ellipse;whiteSpace=wrap;html=1;" vertex="1" parent="1">
          <mxGeometry x="470" y="350" width="70" height="45" as="geometry" />
        </mxCell>
        <mxCell id="60ZunG6yb70epRFw_22t-30" style="rounded=0;orthogonalLoop=1;jettySize=auto;html=1;entryX=1;entryY=0.5;entryDx=0;entryDy=0;" edge="1" parent="1" source="60ZunG6yb70epRFw_22t-16" target="60ZunG6yb70epRFw_22t-3">
          <mxGeometry relative="1" as="geometry" />
        </mxCell>
        <mxCell id="60ZunG6yb70epRFw_22t-16" value="assumpte" style="ellipse;whiteSpace=wrap;html=1;" vertex="1" parent="1">
          <mxGeometry x="540" y="300" width="70" height="40" as="geometry" />
        </mxCell>
        <mxCell id="60ZunG6yb70epRFw_22t-31" style="rounded=0;orthogonalLoop=1;jettySize=auto;html=1;" edge="1" parent="1" source="60ZunG6yb70epRFw_22t-18">
          <mxGeometry relative="1" as="geometry">
            <mxPoint x="380" y="270" as="targetPoint" />
          </mxGeometry>
        </mxCell>
        <mxCell id="60ZunG6yb70epRFw_22t-18" value="descripcio" style="ellipse;whiteSpace=wrap;html=1;" vertex="1" parent="1">
          <mxGeometry x="580" y="240" width="75" height="45" as="geometry" />
        </mxCell>
        <mxCell id="60ZunG6yb70epRFw_22t-32" style="rounded=0;orthogonalLoop=1;jettySize=auto;html=1;entryX=1;entryY=0.5;entryDx=0;entryDy=0;" edge="1" parent="1" source="60ZunG6yb70epRFw_22t-20" target="60ZunG6yb70epRFw_22t-3">
          <mxGeometry relative="1" as="geometry" />
        </mxCell>
        <mxCell id="60ZunG6yb70epRFw_22t-20" value="mesures" style="ellipse;whiteSpace=wrap;html=1;" vertex="1" parent="1">
          <mxGeometry x="585" y="180" width="70" height="45" as="geometry" />
        </mxCell>
        <mxCell id="60ZunG6yb70epRFw_22t-22" style="rounded=0;orthogonalLoop=1;jettySize=auto;html=1;entryX=0.1;entryY=0.525;entryDx=0;entryDy=0;entryPerimeter=0;" edge="1" parent="1" source="60ZunG6yb70epRFw_22t-6" target="60ZunG6yb70epRFw_22t-3">
          <mxGeometry relative="1" as="geometry" />
        </mxCell>
        <mxCell id="60ZunG6yb70epRFw_22t-35" style="rounded=0;orthogonalLoop=1;jettySize=auto;html=1;entryX=1;entryY=0.5;entryDx=0;entryDy=0;" edge="1" parent="1" source="60ZunG6yb70epRFw_22t-34" target="60ZunG6yb70epRFw_22t-3">
          <mxGeometry relative="1" as="geometry" />
        </mxCell>
        <mxCell id="60ZunG6yb70epRFw_22t-34" value="productesAfectats" style="ellipse;whiteSpace=wrap;html=1;" vertex="1" parent="1">
          <mxGeometry x="585" y="120" width="115" height="50" as="geometry" />
        </mxCell>
        <mxCell id="60ZunG6yb70epRFw_22t-37" style="rounded=0;orthogonalLoop=1;jettySize=auto;html=1;entryX=1;entryY=0.5;entryDx=0;entryDy=0;" edge="1" parent="1" source="60ZunG6yb70epRFw_22t-36" target="60ZunG6yb70epRFw_22t-34">
          <mxGeometry relative="1" as="geometry" />
        </mxCell>
        <mxCell id="60ZunG6yb70epRFw_22t-36" value="producteAfectat" style="ellipse;whiteSpace=wrap;html=1;aspect=fixed;" vertex="1" parent="1">
          <mxGeometry x="847" y="60" width="100" height="100" as="geometry" />
        </mxCell>
        <mxCell id="60ZunG6yb70epRFw_22t-45" style="rounded=0;orthogonalLoop=1;jettySize=auto;html=1;" edge="1" parent="1" source="60ZunG6yb70epRFw_22t-38" target="60ZunG6yb70epRFw_22t-36">
          <mxGeometry relative="1" as="geometry" />
        </mxCell>
        <mxCell id="60ZunG6yb70epRFw_22t-38" value="nom" style="rounded=1;whiteSpace=wrap;html=1;" vertex="1" parent="1">
          <mxGeometry x="640" y="330" width="120" height="60" as="geometry" />
        </mxCell>
        <mxCell id="60ZunG6yb70epRFw_22t-39" value="marcaComercial" style="rounded=1;whiteSpace=wrap;html=1;" vertex="1" parent="1">
          <mxGeometry x="860" y="325" width="120" height="60" as="geometry" />
        </mxCell>
        <mxCell id="60ZunG6yb70epRFw_22t-50" style="rounded=0;orthogonalLoop=1;jettySize=auto;html=1;entryX=1;entryY=0.5;entryDx=0;entryDy=0;" edge="1" parent="1" source="60ZunG6yb70epRFw_22t-40" target="60ZunG6yb70epRFw_22t-36">
          <mxGeometry relative="1" as="geometry" />
        </mxCell>
        <mxCell id="60ZunG6yb70epRFw_22t-40" value="presentacio" style="rounded=1;whiteSpace=wrap;html=1;" vertex="1" parent="1">
          <mxGeometry x="1030" y="325" width="120" height="60" as="geometry" />
        </mxCell>
        <mxCell id="60ZunG6yb70epRFw_22t-46" style="rounded=0;orthogonalLoop=1;jettySize=auto;html=1;entryX=1;entryY=0.5;entryDx=0;entryDy=0;" edge="1" parent="1" source="60ZunG6yb70epRFw_22t-41" target="60ZunG6yb70epRFw_22t-36">
          <mxGeometry relative="1" as="geometry" />
        </mxCell>
        <mxCell id="60ZunG6yb70epRFw_22t-41" value="cn" style="rounded=1;whiteSpace=wrap;html=1;" vertex="1" parent="1">
          <mxGeometry x="970" y="410" width="120" height="60" as="geometry" />
        </mxCell>
        <mxCell id="60ZunG6yb70epRFw_22t-47" style="rounded=0;orthogonalLoop=1;jettySize=auto;html=1;entryX=0;entryY=1;entryDx=0;entryDy=0;exitX=0;exitY=0.5;exitDx=0;exitDy=0;" edge="1" parent="1" source="60ZunG6yb70epRFw_22t-42" target="60ZunG6yb70epRFw_22t-36">
          <mxGeometry relative="1" as="geometry" />
        </mxCell>
        <mxCell id="60ZunG6yb70epRFw_22t-42" value="dciodoe" style="rounded=1;whiteSpace=wrap;html=1;" vertex="1" parent="1">
          <mxGeometry x="820" y="490" width="120" height="60" as="geometry" />
        </mxCell>
        <mxCell id="60ZunG6yb70epRFw_22t-48" style="rounded=0;orthogonalLoop=1;jettySize=auto;html=1;entryX=0.5;entryY=1;entryDx=0;entryDy=0;exitX=1;exitY=0;exitDx=0;exitDy=0;" edge="1" parent="1" source="60ZunG6yb70epRFw_22t-44" target="60ZunG6yb70epRFw_22t-36">
          <mxGeometry relative="1" as="geometry" />
        </mxCell>
        <mxCell id="60ZunG6yb70epRFw_22t-44" value="lotsAfectats" style="rounded=1;whiteSpace=wrap;html=1;" vertex="1" parent="1">
          <mxGeometry x="670" y="400" width="120" height="60" as="geometry" />
        </mxCell>
        <mxCell id="60ZunG6yb70epRFw_22t-49" style="rounded=0;orthogonalLoop=1;jettySize=auto;html=1;entryX=0.6;entryY=0.95;entryDx=0;entryDy=0;entryPerimeter=0;" edge="1" parent="1" source="60ZunG6yb70epRFw_22t-39" target="60ZunG6yb70epRFw_22t-36">
          <mxGeometry relative="1" as="geometry" />
        </mxCell>
      </root>
    </mxGraphModel>
  </diagram>
</mxfile>
